<svg xmlns="http://www.w3.org/2000/svg" viewBox="0 0 112.978 84.463"><defs><style>.cls-1{fill:#fff;}.cls-2{opacity:0.5;}.cls-3{opacity:0.3;}</style></defs><title>autoRecurso 2</title><g id="Capa_2" data-name="Capa 2"><g id="Capa_1-2" data-name="Capa 1"><path class="cls-1" d="M110.914,68.186H2.19A2.064,2.064,0,0,1,.126,66.122V43.858A20.349,20.349,0,0,1,20.452,23.532h72.2a20.349,20.349,0,0,1,20.327,20.326V66.122A2.065,2.065,0,0,1,110.914,68.186ZM4.254,64.058h104.6v-20.2a16.217,16.217,0,0,0-16.2-16.2h-72.2a16.217,16.217,0,0,0-16.2,16.2Z"/><g class="cls-2"><path class="cls-1" d="M110.914,68.186H2.19A2.064,2.064,0,0,1,.126,66.122V43.858A20.349,20.349,0,0,1,20.452,23.532h72.2a20.349,20.349,0,0,1,20.327,20.326V66.122A2.065,2.065,0,0,1,110.914,68.186ZM4.254,64.058h104.6v-20.2a16.217,16.217,0,0,0-16.2-16.2h-72.2a16.217,16.217,0,0,0-16.2,16.2Z"/></g><path class="cls-1" d="M93.015,27.66H19.379A2.064,2.064,0,0,1,17.315,25.6V18.505A18.526,18.526,0,0,1,35.821,0H74.215A20.888,20.888,0,0,1,95.079,20.864V25.6A2.064,2.064,0,0,1,93.015,27.66ZM21.443,23.532H90.951V20.864A16.755,16.755,0,0,0,74.215,4.128H35.821A14.394,14.394,0,0,0,21.443,18.505Z"/><g class="cls-3"><path class="cls-1" d="M35.82,2.064H74.215a18.8,18.8,0,0,1,18.8,18.8V25.6a0,0,0,0,1,0,0H19.379a0,0,0,0,1,0,0v-7.09A16.441,16.441,0,0,1,35.82,2.064Z"/><path class="cls-1" d="M93.015,27.66H19.379A2.064,2.064,0,0,1,17.315,25.6V18.505A18.526,18.526,0,0,1,35.821,0H74.215A20.888,20.888,0,0,1,95.079,20.864V25.6A2.064,2.064,0,0,1,93.015,27.66ZM21.443,23.532H90.951V20.864A16.755,16.755,0,0,0,74.215,4.128H35.821A14.394,14.394,0,0,0,21.443,18.505Z"/></g><g class="cls-3"><path class="cls-1" d="M2.064,66.3H30.825a0,0,0,0,1,0,0V74.1a8.209,8.209,0,0,1-8.209,8.209H10.273A8.209,8.209,0,0,1,2.064,74.1V66.3A0,0,0,0,1,2.064,66.3Z"/><path class="cls-1" d="M22.617,84.376H10.273A10.285,10.285,0,0,1,0,74.1V66.3a2.064,2.064,0,0,1,2.064-2.064H30.825A2.064,2.064,0,0,1,32.889,66.3V74.1A10.284,10.284,0,0,1,22.617,84.376ZM4.128,68.361V74.1a6.152,6.152,0,0,0,6.145,6.144H22.617A6.151,6.151,0,0,0,28.761,74.1V68.361Z"/></g><g class="cls-3"><path class="cls-1" d="M81.719,66.122h28.761a0,0,0,0,1,0,0V73.47a8.667,8.667,0,0,1-8.667,8.667H90.385a8.667,8.667,0,0,1-8.667-8.667V66.122A0,0,0,0,1,81.719,66.122Z"/><path class="cls-1" d="M101.813,84.2H90.385A10.743,10.743,0,0,1,79.654,73.47V66.122a2.065,2.065,0,0,1,2.065-2.064h28.76a2.065,2.065,0,0,1,2.065,2.064V73.47A10.743,10.743,0,0,1,101.813,84.2ZM83.783,68.186V73.47a6.61,6.61,0,0,0,6.6,6.6h11.428a6.61,6.61,0,0,0,6.6-6.6V68.186Z"/></g><path class="cls-1" d="M22.617,84.463H10.273A10.285,10.285,0,0,1,0,74.19V66.384A2.065,2.065,0,0,1,2.064,64.32H30.825a2.065,2.065,0,0,1,2.064,2.064V74.19A10.284,10.284,0,0,1,22.617,84.463ZM4.128,68.449V74.19a6.152,6.152,0,0,0,6.145,6.145H22.617a6.152,6.152,0,0,0,6.144-6.145V68.449Z"/><path class="cls-1" d="M101.813,84.288H90.385A10.743,10.743,0,0,1,79.654,73.557V66.209a2.065,2.065,0,0,1,2.065-2.064h28.76a2.065,2.065,0,0,1,2.065,2.064v7.348A10.743,10.743,0,0,1,101.813,84.288ZM83.783,68.274v5.283a6.61,6.61,0,0,0,6.6,6.6h11.428a6.61,6.61,0,0,0,6.6-6.6V68.274Z"/><line class="cls-1" x1="43.805" y1="47.874" x2="69.298" y2="47.874"/><path class="cls-1" d="M69.3,49.938H43.806a2.064,2.064,0,1,1,0-4.128H69.3a2.064,2.064,0,0,1,0,4.128Z"/><path class="cls-1" d="M3.407,41.62H27.9a0,0,0,0,1,0,0v5.243a7.667,7.667,0,0,1-7.667,7.667H2.19a0,0,0,0,1,0,0V42.838A1.218,1.218,0,0,1,3.407,41.62Z"/><path class="cls-1" d="M20.233,56.593H2.19A2.064,2.064,0,0,1,.126,54.529V42.838a3.286,3.286,0,0,1,3.281-3.283H27.9a2.065,2.065,0,0,1,2.064,2.065v5.242A9.742,9.742,0,0,1,20.233,56.593ZM4.254,52.465H20.233a5.609,5.609,0,0,0,5.6-5.6V43.684H4.254Z"/><path class="cls-1" d="M84.617,41.555H102.66a7.667,7.667,0,0,1,7.667,7.667v5.243a0,0,0,0,1,0,0H86.1a1.48,1.48,0,0,1-1.48-1.48V41.555a0,0,0,0,1,0,0Z" transform="translate(194.944 96.019) rotate(-180)"/><path class="cls-1" d="M110.327,56.528H92.284A9.742,9.742,0,0,1,82.553,46.8V41.554a2.065,2.065,0,0,1,2.064-2.064h24.231a3.548,3.548,0,0,1,3.544,3.545V54.464A2.065,2.065,0,0,1,110.327,56.528ZM86.682,43.619V46.8a5.608,5.608,0,0,0,5.6,5.6h15.979V43.619Z"/></g></g></svg>