<svg xmlns="http://www.w3.org/2000/svg" viewBox="0 0 120.085 121.719"><defs><style>.cls-1{fill:#fff;}.cls-2{opacity:0.3;}.cls-3{opacity:0.5;}.cls-4{fill:#eb9100;}</style></defs><title>hogarRecurso 1</title><g id="Capa_2" data-name="Capa 2"><g id="Capa_1-2" data-name="Capa 1"><polygon class="cls-1" points="36.723 23 67.159 63.663 67.159 119.834 2.064 92.81 2.064 36.308 36.723 23"/><path class="cls-1" d="M67.159,121.719a2.054,2.054,0,0,1-.792-.158L1.273,94.537A2.064,2.064,0,0,1,0,92.63v-56.5a2.065,2.065,0,0,1,1.28-1.91L34.737,20.484,83.868.158a2.064,2.064,0,0,1,2.378.588l33.363,40.188a2.059,2.059,0,0,1,.476,1.318V98.424a2.065,2.065,0,0,1-1.269,1.9L67.954,121.56A2.066,2.066,0,0,1,67.159,121.719ZM4.128,91.252l63.029,26.167,48.8-20.371V43L84.041,4.554,36.31,24.3,4.128,37.513Z"/><g class="cls-2"><polygon class="cls-1" points="67.159 119.655 118.021 98.423 118.021 42.252 67.159 63.524 67.159 119.655"/></g><g class="cls-3"><polygon class="cls-1" points="67.159 63.484 118.021 42.252 84.657 2.065 35.52 22.394 67.159 63.484"/></g><polygon class="cls-4" points="41.533 108.067 23.024 100.407 23.024 68.98 41.533 76.64 41.533 108.067"/></g></g></svg>