<svg xmlns="http://www.w3.org/2000/svg" viewBox="0 0 71.981 128.177"><defs><style>.cls-1{fill:#fff;}.cls-2{opacity:0.5;}.cls-3{fill:#1766ff;}.cls-4{opacity:0.3;}</style></defs><title>oficinaRecurso 3</title><g id="Capa_2" data-name="Capa 2"><g id="Capa_1-2" data-name="Capa 1"><polygon class="cls-1" points="45.754 41.995 2.707 16.676 2.707 100.411 45.754 125.971 45.754 41.995"/><g class="cls-2"><polygon class="cls-1" points="70.276 27.514 45.754 41.969 45.754 125.945 70.276 111.574 70.276 27.514"/></g><polygon class="cls-3" points="20.528 48.266 7.986 40.931 7.986 35.772 20.528 43.106 20.528 48.266"/><polygon class="cls-3" points="37.448 57.877 24.907 50.542 24.907 45.383 37.448 52.717 37.448 57.877"/><polygon class="cls-3" points="20.528 60.76 7.986 53.426 7.986 48.266 20.528 55.601 20.528 60.76"/><polygon class="cls-3" points="37.448 70.371 24.907 63.037 24.907 57.877 37.448 65.212 37.448 70.371"/><polygon class="cls-3" points="20.528 73.255 7.986 65.92 7.986 60.76 20.528 68.095 20.528 73.255"/><polygon class="cls-3" points="37.448 82.866 24.907 75.531 24.907 70.371 37.448 77.706 37.448 82.866"/><polygon class="cls-3" points="20.528 85.749 7.986 78.414 7.986 73.255 20.528 80.589 20.528 85.749"/><polygon class="cls-3" points="37.448 95.36 24.907 88.025 24.907 82.866 37.448 90.2 37.448 95.36"/><g class="cls-4"><polygon class="cls-1" points="27.181 2.205 2.686 16.676 45.733 41.995 70.256 27.539 27.181 2.205"/></g><path class="cls-1" d="M45.252,128.177a2.215,2.215,0,0,1-1.126-.309L1.08,102.308a2.207,2.207,0,0,1-1.08-1.9V16.676a2.205,2.205,0,0,1,3.324-1.9L46.371,40.094A2.207,2.207,0,0,1,47.458,42v83.976a2.207,2.207,0,0,1-2.206,2.206ZM4.412,99.155,43.046,122.1V43.257L4.412,20.532Z"/><path class="cls-1" d="M45.252,128.177a2.206,2.206,0,0,1-2.206-2.206V42a2.206,2.206,0,0,1,1.086-1.9L68.655,25.639a2.206,2.206,0,0,1,3.326,1.9V111.6a2.206,2.206,0,0,1-1.091,1.9L46.367,127.874A2.2,2.2,0,0,1,45.252,128.177Zm2.206-84.922v78.867l20.111-11.787V31.4Z"/><path class="cls-1" d="M45.252,44.2a2.2,2.2,0,0,1-1.118-.3L1.088,18.577a2.206,2.206,0,0,1,0-3.8L25.578.306a2.207,2.207,0,0,1,2.24,0L70.893,25.638a2.206,2.206,0,0,1,0,3.8L46.372,43.9A2.2,2.2,0,0,1,45.252,44.2ZM6.55,16.672l38.7,22.763L65.427,27.542,26.7,4.766Z"/></g></g></svg>